HIERARCHY
ROOT Model_Hips
{
	OFFSET 0.000000 96.915077 0.000000
	CHANNELS 6 Xposition Yposition Zposition Xrotation Yrotation Zrotation
	JOINT Model_Spine
	{
		OFFSET 0.000000 11.137703 -1.289900
		CHANNELS 3 Xrotation Yrotation Zrotation
		JOINT Model_Spine1
		{
			OFFSET 0.000000 12.993942 -1.504922
			CHANNELS 3 Xrotation Yrotation Zrotation
			JOINT Model_Spine2
			{
				OFFSET 0.000000 14.850220 -1.719911
				CHANNELS 3 Xrotation Yrotation Zrotation
				JOINT Model_Neck
				{
					OFFSET 0.000000 16.706543 -1.934903
					CHANNELS 3 Xrotation Yrotation Zrotation
					JOINT Model_Head
					{
						OFFSET 0.000000 10.471298 2.002100
						CHANNELS 3 Xrotation Yrotation Zrotation
						JOINT Model_HeadTop_End
						{
							OFFSET 0.000000 20.842606 3.985100
							CHANNELS 3 Xrotation Yrotation Zrotation
							End Site
							{
								OFFSET 0.000000 21.220154 0.000000
							}
						}
					}
				}
				JOINT Model_LeftShoulder
				{
					OFFSET 7.008500 14.768600 -1.919946
					CHANNELS 3 Xrotation Yrotation Zrotation
					JOINT Model_LeftArm
					{
						OFFSET 14.126271 -3.718048 0.029937
						CHANNELS 3 Xrotation Yrotation Zrotation
						JOINT Model_LeftForeArm
						{
							OFFSET 28.282801 0.000000 0.000000
							CHANNELS 3 Xrotation Yrotation Zrotation
							JOINT Model_LeftHand
							{
								OFFSET 26.204689 0.000000 0.000000
								CHANNELS 3 Xrotation Yrotation Zrotation
								End Site
								{
									OFFSET 26.204704 0.000000 0.000000
								}
							}
						}
					}
				}
				JOINT Model_RightShoulder
				{
					OFFSET -7.008500 14.768555 -1.949840
					CHANNELS 3 Xrotation Yrotation Zrotation
					JOINT Model_RightArm
					{
						OFFSET -14.126281 -3.718018 -0.029932
						CHANNELS 3 Xrotation Yrotation Zrotation
						JOINT Model_RightForeArm
						{
							OFFSET -28.283798 0.000000 -0.000001
							CHANNELS 3 Xrotation Yrotation Zrotation
							JOINT Model_RightHand
							{
								OFFSET -26.204193 0.000000 -0.000001
								CHANNELS 3 Xrotation Yrotation Zrotation
								End Site
								{
									OFFSET -26.204208 0.000000 -0.000001
								}
							}
						}
					}
				}
			}
		}
	}
	JOINT Model_LeftUpLeg
	{
		OFFSET 8.327700 -6.193199 -0.402800
		CHANNELS 3 Xrotation Yrotation Zrotation
		JOINT Model_LeftLeg
		{
			OFFSET 0.735802 -42.108742 -0.610721
			CHANNELS 3 Xrotation Yrotation Zrotation
			JOINT Model_LeftFoot
			{
				OFFSET -0.735806 -36.833748 -0.172876
				CHANNELS 3 Xrotation Yrotation Zrotation
				JOINT Model_LeftToeBase
				{
					OFFSET -0.565857 -11.977769 16.297714
					CHANNELS 3 Xrotation Yrotation Zrotation
					JOINT Model_LeftToe_End
					{
						OFFSET -0.111712 -0.312793 7.857784
						CHANNELS 3 Xrotation Yrotation Zrotation
						End Site
						{
							OFFSET -0.111712 -0.312793 7.857784
						}
					}
				}
			}
		}
	}
	JOINT Model_RightUpLeg
	{
		OFFSET -8.327700 -6.193199 -0.516500
		CHANNELS 3 Xrotation Yrotation Zrotation
		JOINT Model_RightLeg
		{
			OFFSET -0.735785 -42.108738 -0.434061
			CHANNELS 3 Xrotation Yrotation Zrotation
			JOINT Model_RightFoot
			{
				OFFSET 0.735776 -36.833748 -0.021630
				CHANNELS 3 Xrotation Yrotation Zrotation
				JOINT Model_RightToeBase
				{
					OFFSET 0.565817 -11.977745 15.903093
					CHANNELS 3 Xrotation Yrotation Zrotation
					JOINT Model_RightToe_End
					{
						OFFSET 0.111702 -0.312791 7.811342
						CHANNELS 3 Xrotation Yrotation Zrotation
						End Site
						{
							OFFSET 0.111702 -0.312791 7.811342
						}
					}
				}
			}
		}
	}
}
MOTION
Frames: 6
Frame Time: 0.016667
-0.399525 94.903313 -0.670374 -13.989485 5.594438 -0.722911 4.455828 0.549643 1.066404 8.907231 1.224748 1.800837 8.907230 1.224749 1.800838 -3.965631 -0.373531 -0.191276 -3.965630 -0.373534 -0.191275 0.000000 -0.000000 -0.000000 3.622075 2.746804 0.791888 6.583482 -26.222469 -68.383963 -0.187463 -25.866490 -0.000189 -0.000003 0.000001 -0.000002 6.023167 -1.689205 -5.579098 6.661542 15.934539 73.154365 -0.208966 31.456586 -0.005711 0.000000 0.000001 0.000000 -12.134514 4.272158 10.792059 61.596258 -3.778873 -2.367140 -1.356983 -4.341402 -4.634225 -23.033621 -1.900326 5.093314 0.000000 -0.000001 -0.000000 3.006242 -9.994354 4.528663 29.513152 -1.355807 1.080690 -18.426484 0.709697 -4.903445 -5.384502 -0.170441 0.416723 0.000001 0.000000 -0.000000 
-0.365094 94.872154 0.492344 -13.907667 5.169815 -0.772692 4.461278 0.666943 0.982184 8.916875 1.454599 1.678017 8.916881 1.454597 1.678018 -3.984493 -0.380338 -0.208327 -3.984493 -0.380346 -0.208328 -0.000000 0.000000 0.000000 3.631811 2.956533 0.835931 7.312142 -25.769271 -68.344020 -0.194160 -26.245277 0.000686 -0.000001 0.000002 -0.000001 5.963867 -1.268789 -5.552736 7.695066 15.595480 72.368928 -0.208945 35.389109 -0.012923 -0.000001 0.000002 -0.000001 -13.230502 4.060349 9.986985 58.424113 -3.549944 -2.260439 -5.469370 -2.288857 -4.434971 -15.789985 -0.893987 3.924952 -0.000001 0.000001 0.000000 3.849311 -10.223078 4.450379 29.419616 -1.307994 1.077469 -19.021259 1.390905 -4.677836 -5.402878 -0.170404 0.416624 -0.000000 0.000001 0.000000 
-0.325992 94.850090 1.646214 -13.786488 4.787955 -0.875911 4.446748 0.763098 0.932890 8.886731 1.651912 1.607896 8.886736 1.651913 1.607896 -4.004017 -0.385388 -0.220595 -4.004019 -0.385390 -0.220594 -0.000000 0.000000 -0.000000 3.643502 3.144393 0.848275 7.839495 -25.391150 -68.461875 -0.200191 -26.234200 0.000983 -0.000001 -0.000000 0.000000 5.907789 -0.865637 -5.525504 8.561129 15.341273 71.673232 -0.206512 38.698680 -0.017822 0.000002 -0.000000 0.000000 -14.440620 4.121644 9.313818 55.105157 -3.148118 -2.138277 -8.603801 -0.850450 -3.892092 -6.606348 -0.180550 3.003731 0.000000 -0.000000 -0.000000 4.683079 -10.253536 4.491949 29.215123 -1.276789 1.068791 -19.540422 1.834772 -4.474573 -5.431863 -0.170345 0.416465 -0.000000 0.000000 0.000000 
-0.285950 94.855698 2.802727 -13.565990 4.517622 -1.098935 4.419595 0.845042 0.909670 8.831657 1.828584 1.569590 8.831657 1.828587 1.569589 -4.024005 -0.388939 -0.230051 -4.024005 -0.388937 -0.230051 0.000000 0.000000 -0.000000 3.656978 3.318936 0.838012 8.214710 -25.071248 -68.682805 -0.205809 -25.955112 0.000929 0.000002 -0.000001 -0.000001 5.854249 -0.478791 -5.502474 9.310516 15.144254 71.039889 -0.202657 41.582052 -0.019845 0.000002 0.000001 0.000000 -15.663205 4.370790 8.833325 51.422572 -2.744783 -2.006359 -11.060507 0.159637 -3.247927 -4.009861 -0.031359 0.071586 0.000000 -0.000000 -0.000000 5.581622 -10.157904 4.746522 28.674705 -1.342991 1.039881 -19.873339 2.132892 -4.259881 -5.476064 -0.170257 0.416219 0.000000 0.000001 0.000000 
-0.240423 94.881516 3.953493 -13.266111 4.312453 -1.420356 4.378372 0.908591 0.914649 8.748706 1.974530 1.569407 8.748711 1.974531 1.569409 -4.044777 -0.390460 -0.236635 -4.044774 -0.390466 -0.236635 0.000000 0.000000 -0.000000 3.672907 3.479415 0.800695 8.405610 -24.823812 -69.007170 -0.211151 -25.359977 0.000430 0.000002 0.000000 0.000001 5.804679 -0.116467 -5.490663 9.903816 15.016745 70.474281 -0.198786 43.960064 -0.021616 -0.000000 -0.000001 0.000001 -16.891237 4.871414 8.506667 47.441189 -2.358732 -1.864536 -12.988160 0.702335 -2.711360 -4.131692 -0.031408 0.071866 -0.000000 0.000001 0.000000 6.520636 -9.952418 5.163483 27.866287 -1.446876 0.993253 -20.038407 2.295672 -4.044359 -5.546021 -0.170087 0.415828 0.000000 0.000000 -0.000000 
-0.188729 94.945923 5.085840 -12.876035 4.153080 -1.853226 4.324778 0.952352 0.946702 8.641266 2.084488 1.606581 8.641269 2.084486 1.606583 -4.066849 -0.389604 -0.240719 -4.066852 -0.389602 -0.240719 0.000000 0.000001 -0.000000 3.691865 3.626873 0.734726 8.397318 -24.657511 -69.423996 -0.216260 -24.439557 -0.000428 -0.000000 0.000000 0.000000 5.760649 0.212888 -5.496558 10.322021 14.965938 69.981230 -0.195112 45.802842 -0.023127 0.000001 -0.000001 0.000001 -18.065678 5.639171 8.317927 43.100567 -1.992894 -1.709812 -14.522125 0.816519 -2.508452 -4.119265 -0.031393 0.071834 0.000000 -0.000001 -0.000000 7.545865 -9.666668 5.750623 26.646330 -1.559667 0.919262 -19.936214 2.355986 -3.824613 -5.650493 -0.169824 0.415245 -0.000000 0.000000 0.000000 
